<?xml version="1.0" encoding="utf-8"?>
<!-- Generator: Adobe Illustrator 16.0.0, SVG Export Plug-In . SVG Version: 6.00 Build 0)  -->
<!DOCTYPE svg PUBLIC "-//W3C//DTD SVG 1.1//EN" "http://www.w3.org/Graphics/SVG/1.1/DTD/svg11.dtd">
<svg version="1.1" id="Capa_1" xmlns="http://www.w3.org/2000/svg" xmlns:xlink="http://www.w3.org/1999/xlink" x="0px" y="0px"
	 width="310px" height="230.798px" viewBox="0 0 310 230.798" enable-background="new 0 0 310 230.798" xml:space="preserve">
<path fill-rule="evenodd" clip-rule="evenodd" fill="#050206" d="M224.285,61.595c0.067-1.23,0.135-2.46,0.201-3.69
	c1.106-3.03-0.303-6.284,0.83-9.312c0.062-1.178,0.122-2.355,0.183-3.532c1.371-2.724-0.919-5.794,0.803-8.484
	c0.269-2.112,0.607-4.218,0.791-6.338c0.839-9.669,5.248-12.359,14.142-8.586c2.6,0.726,3.734,2.769,4.112,5.136
	c0.757,4.749,1.443,9.571-0.858,14.127c-0.812,1.604-0.56,3.231-0.614,4.863c-0.283,8.599,0.533,17.216-0.423,25.804
	c-0.385,12.79-0.688,25.584-1.213,38.369c-0.127,3.076,1.415,3.692,3.853,3.761c3.745,0.171,6.057,2.604,6.626,5.786
	c1.785,9.998,2.253,20.074-0.216,30.083c-0.057,2.303-0.113,4.605-0.171,6.908c-0.265,2.598-1.188,4.973-2.432,7.241
	c-0.343,0.831-0.748,1.615-1.572,2.083c-1.646-0.634-2.516-2.054-3.455-3.414c0.282-2.195,1.982-3.793,2.451-5.915
	c0.141-0.508,0.312-0.996,0.49-1.488c0.319-10.643,0.271-21.273-0.034-31.895c-0.355-0.92-0.656-1.868-1.209-2.698
	c-1.157-1.644-2.916-2.339-4.711-2.984c-6.026-1.299-12.11-2.136-18.254-2.609c-7.919-1.936-16.065-2.072-24.104-2.66
	c-11.039-0.808-22.063-1.946-33.137-2.327c-5.832-1.469-11.848-1.003-17.764-1.554c-6.908-0.644-13.835-1.433-20.8-1.396
	c-3.889-1.343-7.941-0.724-11.922-0.959c-0.827-0.031-1.646-0.131-2.449-0.319c-3.815-1.025-7.657-0.863-11.503-0.212
	c-1.41,0.378-2.877,0.516-4.271,0.971c-5.552,0.738-9.526,4.248-13.521,7.717c-1.68,1.601-3.677,2.8-5.424,4.317
	c-5.772,4.41-11.015,9.456-16.743,13.92c-2.353,1.833-3.289,4.475-3.694,7.342c-0.795,4.679-0.889,9.345,0.103,14.004
	c0.638,3.424,0.348,6.885,0.412,10.331c0.117,6.258,0.925,7.269,7.025,8.658c13.966,1.67,27.944,3.165,41.937,4.528
	c4.273,0.416,8.505,1.269,12.815,1.278c1.864,0.501,3.743,0.92,5.7,0.772c1.364,0.031,2.724,0.121,4.062,0.416
	c1.828,0.651,3.732,0.593,5.634,0.582c7.609,0.719,15.169,1.91,22.811,2.274c2.084,0.73,4.252,0.783,6.428,0.747
	c1.337,0.015,2.668,0.086,3.977,0.385c1.985,0.724,4.063,0.623,6.126,0.66c1.042,0.02,2.07,0.146,3.085,0.378
	c2.221,0.797,4.537,0.548,6.825,0.607c1.027,0.023,2.039,0.161,3.038,0.393c1.925,0.692,3.932,0.625,5.932,0.613
	c0.766-0.018,1.528-0.005,2.293,0.029c1.035,0.033,2.055,0.171,3.061,0.408c1.985,0.694,4.045,0.51,6.09,0.504
	c2.078,0.025,4.154,0.028,6.23-0.001c1.771-0.027,3.535-0.128,5.254-0.62c0.983-0.167,1.971-0.177,2.957-0.053
	c2.485,1.554,4.947-1.34,7.437-0.053c-0.717,6.64-6.419,8.189-11.055,10.843c-0.49,0.189-0.994,0.314-1.512,0.402
	c-1.885,0.117-3.722,0.51-5.563,0.918c-13.021-1.178-25.97-3.006-38.97-4.327c-10.862-1.104-21.702-2.472-32.588-3.285
	c-7.269-0.543-14.411-2.238-21.725-2.189c-0.552-0.041-1.099-0.146-1.633-0.286c-2.266-0.909-4.671-0.587-7.024-0.74
	c-0.795-0.047-1.575-0.182-2.347-0.371c-2.838-0.915-5.801-0.306-8.686-0.693c-0.553-0.051-1.09-0.162-1.622-0.307
	c-6.645-0.76-13.293-1.437-19.962-1.896c-3.046-0.563-6.171-0.504-9.204-1.159c-3.828-0.828-6.557-2.785-7.079-6.975
	c-3.901-3.38-5.065-7.684-4.946-12.754c0.201-8.559-0.027-17.129-0.075-25.694c-0.597-4.791,2.558-7.569,5.614-10.371
	c3.27-2.996,6.317-6.305,10.66-7.848c1.192-1.1,2.385-2.199,3.577-3.299c0.442-0.885,1.001-1.606,2.134-1.521
	c0.623-0.551,1.246-1.102,1.869-1.652c1.022-2.379,0.573-4.786,0.137-7.192c-0.021-0.502-0.041-1.005-0.062-1.508
	c-1.223-1.372-1.188-2.888-0.935-4.653c0.662-4.611,0.695-9.26-0.034-13.888c-0.063-2.481-0.125-4.963-0.188-7.444
	c-2.331-6.587-2.881-13.468-2.043-20.263c0.588-4.766,0.811-9.41,0.245-14.135c-0.048-3.973-0.078-7.944-0.147-11.916
	c-0.119-6.757,2.29-10.139,7.668-10.708c5.397-0.571,8.192,2.08,9.479,8.994c1.347,2.009-0.367,4.381,0.761,6.416
	c0.064,0.867,0.129,1.734,0.193,2.602c1.079,2.345-0.209,4.957,0.829,7.306c-0.072,3.611,0.054,7.201,1.18,10.681
	c1.936,2.229-0.654,4.979,0.84,7.259c-0.131,3.97,0.327,7.882,1.161,11.757c1.062,2.345-0.219,4.953,0.824,7.3
	c0.038,0.564,0.077,1.129,0.115,1.693c1.882,2.602-0.57,5.663,0.883,8.311l-0.172,0.365l0.234,0.328
	c0.929,4.003,3.422,5.366,7.408,4.675c1.603-0.277,3.291,0.073,4.64,1.229c10.204,1.118,20.427,1.978,30.695,2.205
	c3.03,1.093,6.276-0.291,9.307,0.808c1.51,0.072,3.02,0.145,4.529,0.216c2.754,0.976,5.712-0.246,8.461,0.781
	c9.535,1.152,19.094,2.008,28.702,2.188c1.414,0.701,3.004,0.648,4.386,0.353c5.816-1.245,11.373-0.16,16.91,1.456
	c2.33-0.393,4.649,2.499,6.985,0.021c-0.491-3.393,0.289-6.658,0.994-9.931c0.048-1.193,0.095-2.387,0.142-3.58
	c1.05-3.072-0.26-6.343,0.791-9.414c0.067-1.224,0.134-2.447,0.201-3.67c0.68-2.107,0.495-4.166-0.124-6.276
	c-0.625-2.127-0.597-4.238,1.127-5.975l-0.021,0.036C224.59,67.091,223.223,64.221,224.285,61.595z"/>
<path fill-rule="evenodd" clip-rule="evenodd" fill="#A4A4A6" d="M105.634,186.492c0.588,0.054,1.175,0.106,1.762,0.16
	c2.262,1.151,4.824-0.21,7.097,0.849l-0.054-0.069c3.397,2.219,7.43,1.51,11.081,1.934c13.123,1.521,26.353,2.24,39.461,3.869
	c13.115,1.631,26.251,2.994,39.384,4.431c4.354,0.476,8.553,0.189,12.778-0.687c1.822-0.716,3.601-0.882,5.267,0.404
	c0.311,0.64,0.179,1.172-0.394,1.595c-7.502,1.844-15.036,2.203-22.615,0.479c-8.556-0.946-17.119-1.829-25.667-2.852
	c-23.912-2.86-47.924-4.757-71.839-7.647c-12.354-1.494-24.763-2.656-37.094-4.383c-5.686-0.796-7.441-3.415-6.267-8.147
	c2.104,4.39,5.84,5.975,10.445,6.233c1.801,0.101,3.583,0.54,5.374,0.825c7.066,1.071,14.134,2.126,21.313,1.998
	c0.261-0.194,0.502-0.173,0.725,0.063C99.25,188.035,102.618,185.542,105.634,186.492z"/>
<path fill-rule="evenodd" clip-rule="evenodd" fill="#2B86C5" d="M142.428,68.699c6.745-6.993,14.78-10.123,24.53-8.33
	c1.757,0.323,3.584,0.269,5.378,0.389c-0.529,3.033-4.253,1.176-5.363,3.747c2.327,1.682,6.349,0.187,7.829,3.665
	c0.041,0.486-0.092,0.914-0.422,1.275c-1.554-0.24-2.918-1.368-4.605-0.985c-3.533-0.545-7.064-0.73-10.592,0.054l-0.413-0.069
	l-0.371,0.196c-3.198,2.009-6.355,4.101-10.146,4.878C144.704,73.855,142.711,72.31,142.428,68.699z"/>
<path fill-rule="evenodd" clip-rule="evenodd" fill="#288DCC" d="M179.459,53.241c-6.446-2.134-13.096-2.681-19.834-2.542
	c-1.406,0.515-2.787,0.562-5.033-0.395c5.932-3.989,10.638-8.923,18.189-6.856c4.616,0.263,8.897,1.6,12.847,4.002
	C186.155,52.132,183.424,53.344,179.459,53.241z"/>
<path fill-rule="evenodd" clip-rule="evenodd" fill="#3173B4" d="M164.55,76.072c3.591,0.179,6.798,0.906,9.46,3.153
	c1.769,1.492,2.193,3.369,0.829,5.285c-1.207,1.695-2.818,2.133-4.734,0.857c-3.521-2.343-7.098-2.473-10.716-0.118
	c-1.878,1.222-3.586,0.691-4.754-1.032c-1.153-1.701-0.828-3.355,0.576-4.968C157.807,76.27,161.394,76.579,164.55,76.072z"/>
<path fill-rule="evenodd" clip-rule="evenodd" fill="#269BD8" d="M172.781,43.448c-7.105-1.718-10.681,5.186-17.113,6.86
	c1.748,0.172,2.853,0.281,3.957,0.39c-6.711,1.241-13.041,3.507-18.907,7.021c-2.429,0.162-4.874,1.668-7.315-0.132
	c-0.152-0.112-0.497,1.165-1.219,1.391c-1.725-2.289-0.544-3.894,1.261-5.352c1.103-0.381,2.265-0.129,3.384-0.337
	c5.59-0.339,9.816-4.406,15.092-5.346c0.812-1.811-2.068-1.614-1.462-3.158C157.781,42.378,165.202,41.593,172.781,43.448z"/>
<path fill-rule="evenodd" clip-rule="evenodd" fill="#DBDBDC" d="M222.326,198.546c-0.024-0.342-0.05-0.684-0.074-1.025
	c0.441-2.604,3.019-2.355,4.587-3.454c1.608-0.54,3.15-1.164,3.711-3.01c0.949-1.851,2.435-3.239,3.928-4.624
	c0.343-0.31,0.713-0.584,1.093-0.844c5.123-4.137,8.934-9.511,13.388-14.273c2.13-2.278,2.096-5.04,0.472-7.726
	c-0.221-2.852,2.429-4.531,2.9-7.101c0.067,0.678,0.135,1.355,0.201,2.032c4.645,3.398,5.215,7.364,2.021,12.31
	c-3.633,5.626-9.217,9.467-13.213,14.744c-3.332,2.652-6.403,5.566-8.977,8.977C230.013,198.384,226.767,199.966,222.326,198.546z"
	/>
<path fill-rule="evenodd" clip-rule="evenodd" fill="#2E81C1" d="M179.459,53.241c3.102-0.817,5.418-2.471,6.169-5.791
	c3.325,0.725,5.994,2.715,8.523,4.78c2.124,1.733,5.722,3.209,3.241,7.013c-2.326,3.566-5.085,1.661-7.698,0.201
	C186.844,56.451,183.011,55.078,179.459,53.241z"/>
<path fill-rule="evenodd" clip-rule="evenodd" fill="#2E7FBF" d="M174.38,69.445c0.001-0.289,0.001-0.579,0.001-0.868
	c1.977-1.557-0.645-5.51,3.183-6.101c1.902,0.806,3.805,1.61,5.708,2.415c0.709,0.661,1.419,1.323,2.13,1.982
	c1.673,1.554,2.132,3.349,0.604,5.168c-1.397,1.664-3.24,2.143-5.263,1.019C178.61,71.875,176.5,70.652,174.38,69.445z"/>
<path fill-rule="evenodd" clip-rule="evenodd" fill="#30A3DD" d="M150.458,44.786c0.752,0.269,1.487,0.619,2.263,0.785
	c0.919,0.197,2.251-0.11,2.171,1.313c-0.038,0.671-0.828,1.785-1.395,1.864c-6.094,0.853-10.78,5.801-17.127,5.829
	c2.147-4.124,6.345-5.324,10.207-6.728c1.708-0.62,0.784-1.355,0.868-2.124C148.449,45.413,149.453,45.099,150.458,44.786z"/>
<path fill-rule="evenodd" clip-rule="evenodd" fill="#46A7D5" d="M147.445,45.726c0.256,0.864,4.067,1.312,0.37,2.626
	c-4.155,1.479-7.634,4.147-11.445,6.226c-0.976-0.316-1.95-0.634-2.926-0.95C137.412,49.754,142.225,47.378,147.445,45.726z"/>
<path fill-rule="evenodd" clip-rule="evenodd" fill="#258FCE" d="M132.184,58.978c2.51-2.687,5.428-2.606,8.533-1.259
	c-1.324,1.907-3.27,2.947-5.336,3.818C133.453,61.761,132.853,60.328,132.184,58.978z"/>
<path fill-rule="evenodd" clip-rule="evenodd" fill="#FDFDFD" d="M78.34,117.493c1.608-1.338,3.217-2.675,4.825-4.012
	c5.495-1.563,9.852-5.742,15.573-6.796c3.653-0.85,6.901-0.226,9.661,2.496c2.146,2.116,5.089,2.294,7.812,2.983
	c1.835,0.464,2.975-0.065,4.095-1.782c2.129-3.264,4.913-3.057,5.905,0.598c1.096,4.031,3.333,5.913,7.172,7.313
	c5.561,2.025,6.523,6.09,3.664,11.415c-2.197,4.092-3.949,8.421-5.088,12.898c-1.056,4.151-3.444,5.763-7.509,5.416
	c-13.867-1.027-27.742-1.905-41.477-4.146c-5.813-2.919-12.013-2.336-18.189-1.965c-1.012-0.012-1.997-0.168-2.938-0.547
	c-1.785-2.723-1.07-7.641,1.65-9.424c4.705-3.084,7.94-7.924,12.932-10.631C77.963,120.476,77.92,118.874,78.34,117.493z"/>
<path fill-rule="evenodd" clip-rule="evenodd" fill="#FCFCFC" d="M125.27,146.635c5.95,1.083,5.956-4.885,6.38-7.269
	c0.735-4.143,3.413-7.076,4.511-10.827c0.457-1.561,3.196-2.672,1.671-4.638c-1.657-2.136-3.155-5.252-6.325-5.057
	c-4.503,0.279-5.159-2.974-6.013-5.855c-0.478-1.612-0.26-3.535-2.327-3.837c-2.566-0.374-1.476,1.928-1.868,3.097
	c-0.338,1.008-0.863,2.2-1.899,1.926c-3.624-0.963-8.058-0.355-10.729-3.083c-3.07-3.136-6.345-3.863-10.293-3.505
	c-1.03-0.458-1.722-1.081-1.138-2.328c1.014-1.167,2.349-0.877,3.637-0.803c4.313-0.56,8.624-0.58,12.936,0.013
	c0.523,0.032,1.047,0.064,1.57,0.097c0.327,0.583,0.195,1.03-0.392,1.339c-4.134,0.36-8.278,0.052-12.418,0.243
	c4.102-0.221,8.208,0.192,12.308-0.215c4.151-0.702,8.356,0.15,12.513-0.421c13.051,0.39,26.063,1.285,39.016,2.963
	c-1.493,1.768-1.493,1.768-8.579,1.278c3.443,0.837,7.381-0.413,7.519,2.416c0.22,4.534,2.81,8.553,2.659,12.674
	c-0.121,3.317-1.186,7.598-5.187,9.611c-2.302,1.159-2.278,3.93-3.569,5.82c-1.18,1.726-2.975,3.066-3.799,5.648
	c12.443,1.449,24.626,2.24,36.73,3.742c5.74,0.925,11.556,1.045,17.331,1.48c4.755,0.358,8.925-1.122,12.283-5.132
	c2.759-3.295,5.372-6.774,8.542-9.729c4.983-4.162,8.663-9.538,13.16-14.152c1.08-1.108,1.671-3.029,3.83-2.523
	c0.378,0.642,0.756,1.284,1.133,1.927c0.93,2.441-0.547,4.267-1.926,5.772c-7.491,8.184-14.97,16.381-22.521,24.509
	c-0.783,0.843-1.83,1.422-2.819,2.042c-4.972,2.386-10.129,3.684-15.68,2.703c-2.366-0.845-4.834-0.56-7.271-0.645
	c-1.156-0.029-2.302-0.125-3.426-0.42c-11.208-1.063-22.404-2.219-33.595-3.423c-10.859-1.169-21.729-2.235-32.613-3.158
	C127.193,148.797,125.514,148.659,125.27,146.635z"/>
<path fill-rule="evenodd" clip-rule="evenodd" fill="#F5F6F6" d="M192.381,150.589c-12.514-1.005-25.026-2.021-37.541-3.004
	c-2.289-0.18-2.696-1.103-1.152-2.749c2.844-3.033,5.692-6.04,6.598-10.309c0.137-0.644,0.324-1.203,1.2-1.284
	c6.225-0.58,2.452-7.29,5.864-9.612c-3.727-2.854-3.877-6.35-2.498-10.572c0.338-1.034-1.801-2.798-3.776-2.192
	c-1.374,0.421-2.565,0.703-3.805-0.769c2.899-1.554,6.54,0.88,9.137-1.623c19.372,1.152,38.77,2.016,57.96,5.188
	c-1.402,3.429-4.181,2.372-6.674,1.969c-9.497-1.539-19.207-1.323-28.628-3.514c-0.875-0.203-1.924-0.284-2.969,0.133
	c-0.555,0.046,0.265,0.775,0.015,0.157c-0.085-0.211,0.04-0.315,0.375-0.33c4.746-0.209,9.205,1.172,13.618,2.623
	c2.56,0.842,4.253,2.574,3.989,5.591c-0.199,2.275,0.666,4.201,1.964,6.025c1.834,2.577,1.268,4.781-1.485,6.188
	c-3.09,1.579-3.719,4.785-5.488,7.187C196.509,143.184,196.5,148.191,192.381,150.589z"/>
<path fill-rule="evenodd" clip-rule="evenodd" fill="#F3F3F3" d="M192.381,150.589c0.62-0.753,1.897-1.682,1.751-2.229
	c-0.889-3.328-1.167-6.003,3.344-6.679c0.918-0.138,0.63-1.633,0.674-2.642c0.153-3.524,1.741-6.3,5.228-7.41
	c3.581-1.141,3.917-2.584,1.129-5.103c-1.67-1.508-2.61-3.812-1.885-5.838c1.214-3.389-0.97-4.042-3.137-4.948
	c-5.054-2.114-10.232-3.672-15.816-3.636c8.039-0.805,15.971,1.017,23.938,0.954c5.614-0.045,11.091,3.285,16.762,0.604
	c6.425,0.422,12.84,0.899,18.992,3.031c-2.47,3.168-5.873,4.939-9.538,6.268c-1.71,0.619-3.561,0.832-5.238,1.565
	c-3.819,1.672-4.11,3.22-1.177,6.056c1.77,1.712,3.945,3.147,3.975,6.007c-2.902,3.401-6.028,6.64-8.653,10.243
	c-3.646,5.007-8.822,6.377-14.272,5.594C203.104,151.659,197.572,152.537,192.381,150.589z"/>
<path fill-rule="evenodd" clip-rule="evenodd" fill="#E9E8E8" d="M129.973,180.701c-1.205-0.092-2.411-0.184-3.616-0.275
	c-1.784-0.752-3.766,0.002-5.553-0.73c-18.639-1.344-37.221-3.218-55.71-5.964c0.874-1.399,2.473-1.336,3.77-1.882
	c2.288-0.525,3.969-1.9,4.593-4.105c0.631-2.227,2.076-3.252,4.097-3.817c0.774-0.371,1.571-0.699,2.333-1.087
	c1.351-1.144,1.955-2.403,0.648-3.983c-1.562-1.022-2.298-2.643-3.141-4.195c-3.359-5.602-2.298-7.613,4.422-8.424
	c3.458,0.154,6.996-0.544,10.322,0.96c5.213,1.158,5.663,5.714,6.907,9.71c-2.364,1.131-4.805,2.136-6.799,3.904
	c-1.066,0.087-1.348,0.8-1.084,1.664c0.096,0.314,0.627-0.374,1.025-0.104c0.769,0.35,1.27,0.998,1.862,1.549
	c3.352,3.118,4.801,2.829,6.778-1.352c0.414-0.875,0.598-1.857,1.233-2.636c1.727-0.997,2.251,0.491,2.228,1.479
	c-0.087,3.631,0.978,6.699,3.22,9.58c1.317,1.694,0.81,3.569-1.22,4.773c3.649,0.221,7.215,0.554,10.793,0.67
	c4.869-0.966,9.628-1.042,14.038,1.723c1.837,0.234,3.811-0.098,5.349,1.326c0.233,1.143-0.426,1.495-1.395,1.574
	C133.369,180.99,131.637,181.332,129.973,180.701z"/>
<path fill-rule="evenodd" clip-rule="evenodd" fill="#F6F6F6" d="M87.43,105.701c-1.738,1.443-3.478,2.888-5.862,4.868
	c-0.973-15.594-1.938-30.408-2.808-45.228c-0.67-11.434-1.179-22.877-1.85-34.31c-0.17-2.906,0.312-5.313,3.274-6.543
	c2.903-1.205,5.498-1.115,7.305,1.918c1,2.928-3.008,5.28-0.943,8.336c0.507,11.341,1.887,22.6,2.899,33.89
	c0.543,3.251,0.241,6.53,0.343,9.794c-0.052,1.805,0.137,3.636-0.411,5.396c-0.238,0.766-0.586,1.757-1.513,1.626
	c-1.434-0.201-0.646-1.584-1.034-2.407C88.257,90.57,88.297,98.125,87.43,105.701z"/>
<path fill-rule="evenodd" clip-rule="evenodd" fill="#8B8F98" d="M125.27,146.635c8.74,1.9,17.69,1.952,26.529,2.989
	c14.589,1.712,29.197,3.254,43.797,4.867c-0.716,2.166-4.082-0.264-4.435,2.563c-0.439,0.315-0.907,0.528-1.426,0.664
	c-7.675,1.121-14.984-1.731-22.561-2.05c-6.693-0.28-13.399-1.322-20.104-1.976c-1.894-0.613-3.839-0.833-5.828-0.725
	c-0.582,0.019-1.159,0.013-1.74,0.001c-19.436-1.805-38.801-4.232-58.202-6.313c-7.949-0.785-16.106-0.092-23.188-2.934
	c0.834,3.135,1.707,6.64-0.903,10.019c-0.551-5.074-1.04-10.146,0.251-15.189c1.962-0.623,2.513,1.523,3.917,1.995
	c0.947,0.036,1.895,0.072,2.842,0.108c6.055,0.571,12.192,0.352,18.148,1.876C96.625,144.343,110.916,145.821,125.27,146.635z"/>
<path fill-rule="evenodd" clip-rule="evenodd" fill="#F8F8F8" d="M224.512,109.581c-0.011-0.335-0.022-0.669-0.033-1.004
	c1.107-3.78-0.228-7.728,0.788-11.514c0.761-18.876,2.34-37.69,4.181-56.486c1.191-3.746-0.241-7.685,0.833-11.439
	c-0.126-2.409-0.799-5.089,2.795-5.66c1.759-0.481,3.51-0.741,5.229,0.148l0.043,0.018c0.321,0.976,0.921,1.683,1.927,1.998
	l0.098-0.041c-1.044,5.585-1.206,11.308-2.637,16.828c-1.453,0.723-1.755-0.272-1.786-1.329c-0.057-1.96-0.22-3.931,0.143-6.154
	c0.008-0.396-1.126,0.326-0.486,0.139c0.095-0.028,0.129,0.09,0.165,0.345c0.366,2.625-0.213,5.29,0.462,7.924
	c0.387,1.508,0.174,3.33-1.778,3.439c-2.027,0.113-2.109-1.746-2.112-3.264c-0.002-1.163,0.025-2.329,0.037-2.958
	c-1.629,3.48,1.225,6.937,1.416,10.734c0.32,6.356,0.516,13.236-1.636,18.752c-3.28,8.408-0.471,16.419-1.319,24.527
	c-0.021,2.733,0.109,5.472-0.364,8.179c-0.353,1.5-0.721,3-1.37,4.408C227.759,108.312,227.373,111.311,224.512,109.581z"/>
<path fill-rule="evenodd" clip-rule="evenodd" fill="#22313E" d="M192.72,192.533c-36.958-3.897-73.916-7.794-110.874-11.69
	C85.793,178.025,187.446,188.708,192.72,192.533z"/>
<path fill-rule="evenodd" clip-rule="evenodd" fill="#EFEFF0" d="M231.381,136.59c-1.87-2.051-3.388-4.441-5.835-5.934
	c-3.548-2.163-2.005-4.216,0.212-6.175c0.48-0.424,1.119-0.813,1.735-0.915c5.871-0.962,10.687-4.334,15.866-6.872
	c1.82,0.294,3.309,1.041,3.969,2.915C241.724,124.999,237.761,131.929,231.381,136.59z"/>
<path fill-rule="evenodd" clip-rule="evenodd" fill="#999B9D" d="M217.381,197.571c-4.254,2.174-8.806,1.028-13.163,0.865
	c-19.835-0.745-39.299-5.209-59.164-5.986c-9.221-0.361-18.395-1.904-27.594-2.871c-1.468-0.154-2.538-0.691-3.021-2.147
	c19.02,1.909,38.045,3.766,57.057,5.745c12.892,1.343,25.765,2.857,38.646,4.296c1.646-0.896,3.613,0.228,5.234-0.827
	c0.23-0.205,0.495-0.271,0.794-0.195C217.309,196.028,217.552,196.576,217.381,197.571z"/>
<path fill-rule="evenodd" clip-rule="evenodd" fill="#AEB1B5" d="M239.237,94.556c-0.021,4.292-0.321,8.607,0.015,12.872
	c0.328,4.17-1.07,5.391-4.929,3.982c-1.774-1.95-1.521-4.384-1.181-6.606c0.779-5.101,0.611-10.219,0.74-15.334
	c0.444-12.624,0.584-25.263,1.888-37.844c0.187-1.807,0.144-3.693,1.552-5.138c2.966,0.647,1.983,3.097,2.002,4.844
	c0.132,12.769,0.131,25.538-0.432,38.302C238.82,91.267,238.569,92.956,239.237,94.556z"/>
<path fill-rule="evenodd" clip-rule="evenodd" fill="#F4F5F5" d="M57.208,153.742c0.184-3.769,0.367-7.537,0.555-11.388
	c7.613,2.817,15.788,1.854,23.615,3.382c0.319,0.584,0.173,1.005-0.44,1.262c-2.17-0.152-4.217,0.568-6.314,0.91
	c-2.45,0.208-4.741-0.886-7.163-0.912c-1.784-0.02-3.753-0.23-3.639,2.526c0.104,2.984-0.077,5.961,0.021,8.937
	c0.089,1.478,0.128,2.973-0.034,4.432c-0.518,4.633,0.278,8.432,5.558,9.71c-1.135,1.47-2.873,0.66-4.272,1.131
	c-6.53-0.673-7.947-2.205-7.934-8.605C57.168,161.331,57.191,157.537,57.208,153.742z"/>
<path fill-rule="evenodd" clip-rule="evenodd" fill="#D9DBDC" d="M217.394,187.622c-1.555,0.996-3.262,1.135-5.036,0.895
	c-2.356-0.354-3.677-1.238-3.534-4.109c0.311-6.262,0.164-12.547,0.087-18.82c-0.047-3.734,1.33-6.366,4.838-7.783
	c1.352-1.125,2.86-1.536,4.574-0.971c1.94,1,0.944,2.14,0.167,3.276c-1.658,8.316-0.137,16.744-0.891,25.091
	C217.525,186.004,217.76,186.836,217.394,187.622z"/>
<path fill-rule="evenodd" clip-rule="evenodd" fill="#85868B" d="M217.381,197.571c-0.404-0.374-0.808-0.747-1.212-1.121
	c4.816-2.129,8.533-5.572,11.644-9.74c-0.169-1.938,1.24-3.028,2.431-4.082c5.031-4.45,8.733-10.368,14.922-13.547
	c4.347,0.505,3.465,2.899,1.569,5.084c-3.682,4.244-7.176,8.665-11.229,12.581l-0.01,0.001c-2.517,1.287-4.42,3.149-5.447,5.829
	c-0.557,1.081-1.927,1.18-2.587,2.14c-1.274,1.792-3.69,1.465-5.21,2.806C220.628,197.538,219.005,197.554,217.381,197.571z"/>
<path fill-rule="evenodd" clip-rule="evenodd" fill="#B8BABD" d="M239.237,94.556c-1.444-1.563-0.827-3.491-0.835-5.257
	c-0.053-12.491-0.001-24.984-0.054-37.476c-0.007-1.759,0.642-3.699-0.897-5.222c-1.303-1.305-1.122-2.673-0.172-4.072
	c0.5-5.74-1.011-11.848,3.093-16.93c1.427,1.157,0.896,2.773,0.854,4.188C240.595,51.378,239.91,72.967,239.237,94.556z"/>
<path fill-rule="evenodd" clip-rule="evenodd" fill="#0A070A" d="M245.396,169.621c-6.896,4.631-11.27,11.859-17.585,17.088
	c-2.634-0.261-4.911,3.369-7.766,0.713c0.392-2.144,2.565-2.743,3.677-4.267c0.442-0.475,0.903-0.931,1.365-1.386
	c1.564-1.524,3.087-3.09,4.622-4.642c1.408-1.353,2.814-2.708,4.124-4.159c1.727-1.977,3.106-4.243,5.053-6.037
	c1.682-1.523,3.08-3.359,5.044-4.573c0.447-0.175,0.898-0.182,1.353-0.028c1.324,0.756,2.189,1.918,2.862,3.248
	C249.029,168.149,246.906,168.676,245.396,169.621z"/>
<path fill-rule="evenodd" clip-rule="evenodd" fill="#EDEDED" d="M235.264,89.516c0.746,7.344-1.061,14.578-0.94,21.895
	c-3.469,0.453-6.759-0.056-9.812-1.83c2.138,0.98,2.146-2.162,3.864-1.995c1.214,0.008,2.803,1.054,3.422-0.784
	c0.682-2.023-1.515-2.214-2.427-3.225c0.005-2.995,0.01-5.989,0.015-8.983c1.008-4.413,0.495-8.856,0.26-13.294
	c-0.084-1.585-0.749-3.725,1.782-3.737c1.983-0.011,3.258,1.398,3.427,3.563C235.072,83.918,234.403,86.755,235.264,89.516z"/>
<path fill-rule="evenodd" clip-rule="evenodd" fill="#777C83" d="M221.369,152.565c8.277-8.896,16.558-17.787,24.828-26.688
	c1.146-1.233,2.077-2.598,2.264-4.341c1.564,11.737,1.505,23.48,0.13,35.229c-1.921-1.413-1.548-3.528-1.58-5.461
	c-0.107-6.287,0.048-12.577-0.092-18.821c-0.317-0.723-0.772-0.4-1.224-0.092c-1.967,1.914-3.871,3.861-5.771,5.811
	c-2.743,2.297-4.676,5.309-6.988,7.989c-3.123,2.991-6.048,6.184-9.241,9.109c-1.026,0.719-2.088,1.219-3.327,0.493
	C219.664,154.395,220.875,153.591,221.369,152.565z"/>
<path fill-rule="evenodd" clip-rule="evenodd" fill="#DDDDDE" d="M205.399,188.51c-2.153,0.19-4.277,0.148-6.294-0.771
	c1.498-1.024,3-0.884,3.412-0.685c-1.209-0.418-3.672,0.23-6.054,0.002c-2.369-0.691-4.861-0.191-7.232-0.717
	c-1.847-0.41-2.891-1.191-0.569-2.603c1.248-0.491,2.828-0.053,3.844-0.703c1.723-1.104,6.157,0.655,4.701-4.105
	c-0.064-0.213,0.323-0.653,0.607-0.722c4.757-1.145,6.187-4.836,7.271-9.012c0.321-1.235,1.542-2.979,3.146-0.682
	c1.22,5.221,0.481,10.5,0.521,15.752C208.769,186.519,207.6,187.951,205.399,188.51z"/>
<path fill-rule="evenodd" clip-rule="evenodd" fill="#93979F" d="M245.334,131.566c0.666-1.003,1.332-2.006,1.998-3.009
	c1.212,6.858,0.189,13.775,0.544,20.654c0.144,2.777-0.459,5.594,0.428,8.331c-0.069,2.188-2.29,3.017-3.021,4.787
	c-0.303,0.076-0.602,0.166-0.896,0.271c-1.964,0.762-2.985,3.333-5.578,2.907c-3.063-0.745-4.434-2.901-4.326-5.832
	c0.113-3.072,2.472-5.104,4.977-5.553c5.373-0.961,5.677-4.365,5.61-8.669C244.998,140.832,244.535,136.179,245.334,131.566z"/>
<path fill-rule="evenodd" clip-rule="evenodd" fill="#B8BABE" d="M224.852,183.725c-1.146,1.826-3.273,2.374-4.806,3.696
	c-0.884,0.066-1.769,0.133-2.652,0.2c-0.61-0.753-1.86-1.639-1.736-2.239c1.786-8.627-0.184-17.396,1.114-26.021
	c0.039-0.254,0.443-0.453,0.678-0.679c3.474,0.206,4.277,1.887,2.688,4.878c-0.868,1.633-1.615,3.333-1.443,5.21
	c0.168,1.828-0.425,4.175,2.98,3.866c1.9-0.172,1.718,2.078,2.363,3.321c0.16,0.451,0.27,0.913,0.362,1.382
	C224.962,179.44,224.208,181.63,224.852,183.725z"/>
<path fill-rule="evenodd" clip-rule="evenodd" fill="#F5F4F4" d="M205.399,188.51c1.771-1.298,2.063-3.088,2.017-5.172
	c-0.12-5.24-0.056-10.484-0.065-15.727c-1.341-3.344-2.175-7.061-6.586-7.937c-0.613-0.121-0.318-1.087,0.202-1.588
	c4.463-1.349,8.896-1.802,13.254,0.364c-4.78,1.81-3.788,5.941-3.828,9.62c-0.061,5.608,0.286,11.247-0.223,16.811
	c-0.213,2.328,1.157,2.626,2.188,3.634C210.038,189.114,207.719,188.988,205.399,188.51z"/>
<path fill-rule="evenodd" clip-rule="evenodd" fill="#F5F4F4" d="M61.376,140.547c-1.761,0.228-2.524-1.5-3.917-1.995
	c-0.362-2.343,0.52-4.241,2.261-5.7c6.168-5.166,11.967-10.781,18.62-15.359c1.245,1.563,1.723,2.66-0.452,4.253
	c-5.02,3.675-9.715,7.792-14.555,11.715c-0.367,0.298-0.835,0.474-1.257,0.706C65.223,136.665,60.76,138.327,61.376,140.547z"/>
<path fill-rule="evenodd" clip-rule="evenodd" fill="#E5E4E3" d="M189.381,184.587c-0.161,0.025-0.369-0.002-0.473,0.089
	c-0.188,0.166-0.314,0.402-0.467,0.609c2.59,0.803,5.512-0.414,7.949,1.311c0.323,0.208,0.431,0.415,0.322,0.622
	c-0.108,0.205-0.217,0.309-0.326,0.309c-0.677-0.034-1.353-0.068-2.029-0.103c-2.116-0.826-4.435,0.106-6.548-0.75
	c-0.815-0.064-1.631-0.128-2.446-0.191c-2.416-1.011-5.066,0.156-7.488-0.805c-0.839-0.075-1.678-0.149-2.518-0.225
	c-2.056-0.913-4.343,0.124-6.402-0.759c-1.199-0.08-2.398-0.16-3.597-0.24c-2.093-0.897-4.41,0.102-6.505-0.773
	c-7.896-0.026-15.664-1.37-23.472-2.304c-0.325-0.175-0.433-0.351-0.325-0.526c0.106-0.176,0.215-0.264,0.324-0.264
	c0.332-0.333,0.665-0.665,0.998-0.998c6.469-1.325,12.854,0.157,19.217,0.826c7.901,0.83,15.821,1.533,23.707,2.539
	c1.671,0.213,3.281,0.712,5.189-0.811C186.198,180.783,189.096,181.041,189.381,184.587z"/>
<path fill-rule="evenodd" clip-rule="evenodd" fill="#C1C3C4" d="M88.324,68.697c-2.017-4.535-1.068-9.474-1.617-14.183
	c-0.801-6.88-1.954-13.842-1.364-20.854c-0.428-0.591-0.601-1.339-0.06-1.796c0.794-0.671,1.634-0.209,2.046,0.558
	c0.882,1.64,0.925,3.475,1.068,5.303c0.431,5.439,1.054,10.866,1.307,16.317c0.101,2.162,0.616-0.033,0.878,0.142
	c1.136,3.254,0.902,6.636,0.932,9.993c0.549,1.496,0.286,3.055,0.355,4.581c-0.511,1.587-1.418,1.126-1.935,0.161
	C89.369,67.865,88.988,67.878,88.324,68.697z"/>
<path fill-rule="evenodd" clip-rule="evenodd" fill="#E9EAEA" d="M87.43,105.701c-2.368-7.925-0.3-16.015-1.19-24.106
	c1.903,0.467,0.523,2.223,2.183,3.188c0-2.291,0-4.276,0-6.262c0.606-0.249,1.1-0.106,1.483,0.423
	c1.873,4.295,0.003,8.975,1.378,13.318c0.38,1.551,0.443,3.134,0.455,4.718c-0.128,1.923,0.04,3.811,0.738,5.63
	C91.261,104.401,89.334,105.033,87.43,105.701z"/>
<path fill-rule="evenodd" clip-rule="evenodd" fill="#9A999E" d="M245.396,169.621c0.917-1.348,1.833-2.695,2.749-4.043
	c0.428-0.662,0.855-1.325,1.284-1.987c2.986,0.887,3.568,3.08,2.168,5.388c-4.208,6.932-9.505,12.952-16.093,17.766
	c2.551-5.233,7.539-8.515,10.665-13.309C247.305,171.695,248.089,170.411,245.396,169.621z"/>
<path fill-rule="evenodd" clip-rule="evenodd" fill="#C7C8C9" d="M90.582,54.183c-0.475,1.535,0.27,3.284-1.611,5.848
	c-0.234-4.287-0.387-7.56-0.598-10.829c-0.317-4.891-0.62-9.784-1.073-14.663c-0.072-0.773,0.175-3.946-1.956-0.88
	c-3.078-3.539,2.099-4.637,2.146-7.252C89.588,35.546,89.824,44.894,90.582,54.183z"/>
<path fill-rule="evenodd" clip-rule="evenodd" fill="#BABCBD" d="M89.328,78.699c-0.305-0.048-0.606-0.106-0.906-0.177
	c-0.032-3.276-0.064-6.552-0.097-9.826c0.372-1.479-0.585-3.234,1.02-4.665c2.059,1.407,0.021,4.282,2.031,5.557
	c0.281-0.487,0.56-0.485,0.834,0.005c0.631,4.854,1.416,9.695,1.283,14.617c0.413,2.178,0.905,4.357-0.256,6.466
	c-0.542,0.188-0.993,0.05-1.34-0.408c-1.421-3.813-1.948-7.772-1.738-11.837c0.017-0.317,0.134-0.632,0.17-0.954
	C89.928,77.829,89.818,78.418,89.328,78.699z"/>
<path fill-rule="evenodd" clip-rule="evenodd" fill="#253440" d="M217.165,191.712c-6.81,4.928-13.242,1.701-19.461,1.662
	c-0.681-0.005-1.155-0.709-1.007-1.442c0.332-1.637,1.771-1.447,2.785-1.238C205.031,191.834,210.664,191.429,217.165,191.712z"/>
<path fill-rule="evenodd" clip-rule="evenodd" fill="#F1F0F0" d="M97.238,105.259c0.379,0.776,0.759,1.552,1.138,2.328
	c-3.851,2.069-8.115,3.371-11.597,6.11c-1.38,1.085-2.438,0.279-3.614-0.217C87.33,109.84,91.288,105.845,97.238,105.259z"/>
<path fill-rule="evenodd" clip-rule="evenodd" fill="#21303C" d="M63.175,176.534c4.551,0.372,9.103,0.734,13.651,1.124
	c0.861,0.073,1.742,0.442,1.837,1.346c0.1,0.95-0.751,1.524-1.596,1.477c-4.807-0.277-9.648-0.468-14.069-2.494
	C63.057,177.501,63.116,177.018,63.175,176.534z"/>
<path fill-rule="evenodd" clip-rule="evenodd" fill="#B7B8BA" d="M92.381,90.588c1.855-1.866,0.579-4.279,1.112-6.378
	c0.595,5.243,1.153,10.492,1.799,15.73c0.281,2.278-0.656,3.066-2.815,2.669c-3.318-0.605-1.687-3.202-2.015-5.01
	c0.578-0.317,1.84,0.847,1.736-1.059C92.092,94.578,90.963,92.518,92.381,90.588z"/>
<path fill-rule="evenodd" clip-rule="evenodd" fill="#9D9EA0" d="M95.666,185.483c-7.332,1.77-14.334,0.01-21.313-1.998
	C81.525,183.433,88.617,184.223,95.666,185.483z"/>
<path fill-rule="evenodd" clip-rule="evenodd" fill="#D6D8DD" d="M248.304,157.542c-2.011-3.035-0.792-6.415-0.9-9.616
	c-0.218-6.45-0.068-12.912-0.071-19.369c1.998,1.084,0.996,2.949,1.025,4.439c0.156,7.921,0.17,15.845,0.233,23.768
	C248.563,157.048,248.466,157.308,248.304,157.542z"/>
<path fill-rule="evenodd" clip-rule="evenodd" fill="#FDFDFD" d="M127.392,105.512c-3.995,1.565-7.994,2.533-12.017,0.079
	l0.004,0.001c0-0.342,0.001-0.684,0.002-1.026C119.408,104.575,123.449,104.422,127.392,105.512z"/>
<path fill-rule="evenodd" clip-rule="evenodd" fill="#9D9EA0" d="M105.634,186.492c-2.693,0.865-5.435,1.288-8.28,1.1
	c-1.728-0.114-1.217-1.096-0.963-2.045C99.491,185.672,102.643,185.302,105.634,186.492z"/>
<path fill-rule="evenodd" clip-rule="evenodd" fill="#F0F1F1" d="M113.811,104.469c-4.312-0.005-8.622-0.009-12.934-0.014
	C105.188,103.033,109.499,103.484,113.811,104.469z"/>
<path fill-rule="evenodd" clip-rule="evenodd" fill="#EDEDED" d="M225.267,97.063c-0.088,3.85,0.996,7.78-0.788,11.514
	C224.388,104.714,224.151,100.842,225.267,97.063z"/>
<path fill-rule="evenodd" clip-rule="evenodd" fill="#F5F4F4" d="M230.28,29.137c-0.209,3.818,1.056,7.743-0.833,11.439
	C229.409,36.741,229.294,32.899,230.28,29.137z"/>
<path fill-rule="evenodd" clip-rule="evenodd" fill="#F5F4F4" d="M196.387,187.527c-0.005-0.311-0.003-0.621,0.004-0.932
	c2.232,0.001,4.464,0.001,6.695,0.001c0.025,0.207,0.051,0.414,0.076,0.622c-1.353,0.174-2.705,0.348-4.057,0.521
	C198.199,187.668,197.293,187.597,196.387,187.527z"/>
<path fill-rule="evenodd" clip-rule="evenodd" fill="#9D9EA0" d="M114.492,187.5c-2.38-0.161-4.91,0.935-7.097-0.849
	C109.8,186.608,112.232,186.335,114.492,187.5z"/>
<path fill-rule="evenodd" clip-rule="evenodd" fill="#E1E1E2" d="M177.875,185.678c2.502,0.216,5.15-0.937,7.488,0.805
	C182.833,186.531,180.296,186.643,177.875,185.678z"/>
<path fill-rule="evenodd" clip-rule="evenodd" fill="#DDDDDE" d="M187.81,186.674c2.196,0.135,4.517-0.822,6.548,0.75
	C192.134,187.532,189.913,187.613,187.81,186.674z"/>
<path fill-rule="evenodd" clip-rule="evenodd" fill="#E1E1E2" d="M158.854,183.681c2.179,0.171,4.498-0.847,6.505,0.773
	C163.156,184.478,160.932,184.696,158.854,183.681z"/>
<path fill-rule="evenodd" clip-rule="evenodd" fill="#E1E1E2" d="M168.955,184.695c2.148,0.129,4.428-0.841,6.402,0.759
	C173.186,185.523,171.008,185.635,168.955,184.695z"/>
<path fill-rule="evenodd" clip-rule="evenodd" fill="#F5F4F4" d="M238.305,23.625c-1.743-0.05-3.486-0.099-5.229-0.148
	C234.86,22.062,236.599,22.256,238.305,23.625z"/>
<path fill-rule="evenodd" clip-rule="evenodd" fill="#F5F4F4" d="M240.274,25.641c-2.373,1.003-2.858,0.186-1.927-1.998
	C239.485,23.833,240.095,24.529,240.274,25.641z"/>
<path fill-rule="evenodd" clip-rule="evenodd" fill="#B7B8BA" d="M92.21,69.592c-0.277-0.001-0.556-0.003-0.834-0.005
	c0.046-1.803,0.092-3.605,0.138-5.41C92.398,65.897,92.38,67.735,92.21,69.592z"/>
<path fill-rule="evenodd" clip-rule="evenodd" fill="#E4E4E4" d="M120.804,179.695c1.872,0.086,3.863-0.736,5.553,0.73
	C124.466,180.488,122.545,180.776,120.804,179.695z"/>
<path fill-rule="evenodd" clip-rule="evenodd" fill="#E4E4E4" d="M135.381,180.587c0,0.264,0,0.526,0.001,0.79
	c-1.847,0.133-3.68,0.149-5.408-0.676C131.775,180.664,133.578,180.625,135.381,180.587z"/>
<path fill-rule="evenodd" clip-rule="evenodd" fill="#85868B" d="M215.375,196.645c-1.535,1.594-3.432,0.907-5.233,0.827
	C211.797,196.636,213.581,196.61,215.375,196.645z"/>
<path fill-rule="evenodd" clip-rule="evenodd" fill="#3087C6" d="M177.563,62.476c-1.357,0.84-1.345,2.121-0.959,3.4
	c0.63,2.093-0.58,2.545-2.224,2.7c-1.537-1.867-3.651-1.963-5.843-2.039c-1.427-0.05-3.334-0.177-3.314-2.053
	c0.018-1.81,1.417-2.85,3.383-2.896c1.282-0.03,2.685,0.324,3.729-0.831C174.243,60.832,176.026,61.278,177.563,62.476z"/>
<path fill-rule="evenodd" clip-rule="evenodd" fill="#9A999E" d="M229.321,192.548c1.029-3.029,2.77-5.301,6.175-5.803
	c-1.368,1.615-2.736,3.229-4.104,4.843C230.817,192.158,230.472,193.219,229.321,192.548z"/>
<path fill-rule="evenodd" clip-rule="evenodd" fill="#A4A4A6" d="M229.321,192.548c0.69-0.32,1.38-0.64,2.07-0.96
	c-0.177,2.467-1.825,3.083-3.931,3.126C227.648,193.622,228.387,193,229.321,192.548z"/>
<path fill-rule="evenodd" clip-rule="evenodd" fill="#F5F4F4" d="M82.366,142.532c-6.09-0.227-12.163-0.62-18.147-1.876
	c3.222-0.231,6.459-0.472,9.659-0.742C76.614,139.682,79.53,141.578,82.366,142.532z"/>
<path fill-rule="evenodd" clip-rule="evenodd" fill="#898E95" d="M214.221,158.452c-4.607,0.021-9.215,0.041-13.823,0.062
	c-0.182-0.056-0.363-0.111-0.549-0.162c-0.359-0.151-0.72-0.296-1.09-0.416c-1.435-0.371-2.889-0.093-4.335-0.156
	c-1.186-0.11-2.383-0.189-3.083-1.372c0.015-3.754,3.034-0.834,4.254-1.915c0.94,0.062,1.88,0.124,2.819,0.186
	c2.318,1.086,4.906-0.206,7.231,0.819c5.474,0.271,10.746-0.539,15.724-2.932c-0.331,1.104-0.662,2.209-0.994,3.314
	c0.109,1.521-1.336,1.104-2.028,1.625C216.951,157.733,215.427,157.399,214.221,158.452z"/>
<path fill-rule="evenodd" clip-rule="evenodd" fill="#F0F1F1" d="M115.375,105.591c-4.52,2.344-9.232,0.162-13.852,0.001
	c4.618,0,9.236,0,13.855,0L115.375,105.591z"/>
<path fill-rule="evenodd" clip-rule="evenodd" fill="#8B8F98" d="M205.646,155.497c-2.419-0.203-4.989,0.935-7.232-0.819
	C200.851,154.716,203.348,154.23,205.646,155.497z"/>
<path fill-rule="evenodd" clip-rule="evenodd" fill="#E1E1E2" d="M191.341,156.407c1.273,0.09,2.547,0.179,3.82,0.269
	c0.44,0.162,0.614,0.462,0.494,0.897c-0.193-0.659,0.248,0.565-0.359,0.304c-0.489-0.211-0.526,0.272-0.258,0.205
	c1.881-0.469,3.719-0.979,5.417,0.475l-0.057-0.042c0.232,0.229,0.482,0.676,0.695,0.658c6.647-0.552,6.823,3.664,6.257,8.439
	c-1.363,1.142-1.881,2.651-1.971,4.376c-0.051,0.983,0.069,2.101-0.354,2.917c-1.202,2.325-3.089,3.483-5.856,3.94
	c-1.281,0.211-0.137,3.316-2.631,4.498c-2.458,1.164-4.735,1.098-7.158,1.244c-1.563-2.249-3.452-3.131-5.536-0.803
	c-1.158,1.293-2.486,0.861-3.661,0.75c-13.994-1.328-27.98-2.753-41.964-4.19c-0.633-0.065-1.229-0.495-1.841-0.755
	c-1.992-0.009-3.984-0.018-5.976-0.026c0.108-2.595,2.236-2.016,3.684-2.167c2.816-0.295,5.641-0.04,8.422,0.565
	c1.847,0.401,2.748,0.158,3.397-2.174c1.46-5.238,7.597-7.385,12.794-4.774c1.712-2.001-0.331-4.067,0.034-6.06
	c0.4-2.188,1.896-3.867,2.595-6.328c-3.203-1.384-6.67-1.313-10.001-1.877c-2.651-0.448-2.641-0.514-2.014-2.947
	c10.147,0.022,20.164,1.55,30.196,2.691c3.994,0.454,7.889,0.735,11.856,0.288L191.341,156.407z"/>
<path fill-rule="evenodd" clip-rule="evenodd" fill="#E4E4E4" d="M148.381,154.587c4.032,1.562,8.344,1.372,12.524,2.01
	c0.948,0.145,2.215,0.066,2.749,0.639c0.876,0.937-0.318,1.716-0.888,2.474c-2.123,2.826-4.224,5.568-1.774,9.374
	c0.915,1.422,0.012,3.092-1.222,3.949c-1.723,1.199-2.687-0.245-3.464-1.601c-1.163-2.03-2.654-2.011-3.9-0.301
	c-1.789,2.457-8.706,1.788-4.234,7.961c-6.253,1.655-12.158-2.632-17.77,0.472c-3.884-3.668-8.565-2.099-13.025-1.981
	c-1.235-2.709,0.724-3.566,2.625-3.959c3.968-0.821,5.159-2.942,3.713-6.657c-0.248-0.899-0.33-1.803-0.118-2.729
	c0.023-0.101,0.797-0.861-0.259-0.485c-0.154,0.055-0.319,0.047-0.453,0.121c-4.663-3.574-4.663-3.574-10.636-1.168
	c-0.307-0.356-0.509-0.764-0.614-1.221c-0.044-3.491,3.412-3.347,5.676-5.311c-3.903,2.594-7.354,3.995-11.367,1.674
	c-1.667-0.964-3.124,0.188-4.524,1.041c-1.646,0.108-2.964-0.291-3.325-2.157c-0.892-1.479-2.355-2.528-1.826-4.802
	c0.691-2.968-2.971-1.72-3.882-3.329c3.171-1.815,6.421-0.402,9.59-0.1c12.304,1.176,24.594,2.492,36.899,3.632
	c1.881,0.614,3.891,0.167,5.749,0.596C145.938,153.031,148.092,152.09,148.381,154.587z"/>
<path fill-rule="evenodd" clip-rule="evenodd" fill="#E0DFDF" d="M101.175,159.04c0.495-2.957,1.975-4.271,4.84-2.586
	c3.705,2.178,7.177,2.091,10.555-0.61c0.911-0.729,1.853-1.583,3.091-0.777c0.309,0.2,0.538,0.911,0.436,1.288
	c-0.419,1.546-1.833,1.028-2.898,1.273c-2.321,0.533-4.614,1.145-4.884,4.125c-0.063,1.295-0.888,2.773,0.893,3.624
	c2.11,1.938,4.285,3.66,7.43,2.645c0.982-0.063,1.981-0.078,2.742-0.864c0.306-0.259,0.652-0.438,1.029-0.562
	c2.557,5.245,1.766,7.045-3.776,7.963c-1.923,0.319-3.106,1.003-3.254,3.024c-4.063-0.024-8.171,0.358-12.433-1.555
	c3.246-1.769,3.033-4.066,0.482-5.815c-3.768-2.584-1.492-6.251-2.175-9.365c-0.024-0.111-0.218-0.293-0.27-0.273
	c-0.281,0.105-0.543,0.264-0.811,0.403C101.127,160.698,100.767,160.067,101.175,159.04z"/>
<path fill-rule="evenodd" clip-rule="evenodd" fill="#E2E2E2" d="M69.366,172.6c-7.941-0.06-6.913,0.59-6.971-7.164
	c-0.017-2.279-0.002-4.56-0.001-6.839c1.567-3.877,5.196-3.051,6.485-1.161c1.599,2.345,1.812-0.757,2.52-0.013
	c1.089,3.621,3.47,6.004,6.988,7.297c-2.142,0.772-3.809,1.78-4.349,4.391C73.584,171.312,72.063,172.965,69.366,172.6z"/>
<path fill-rule="evenodd" clip-rule="evenodd" fill="#ECECED" d="M71.196,157.576c-0.424,0.979-0.848,1.959-1.271,2.944
	c-1.732-3.689-4.255-4.287-7.531-1.924c-0.001-3.336-0.002-6.673-0.003-10.01c3.569-3.205,8.061-0.828,11.97-1.978
	c2.34-0.008,4.681-0.016,7.021-0.022c0.278,0.219,0.372,0.439,0.282,0.661c-0.091,0.222-0.183,0.333-0.274,0.333
	c-5.498,0.447-5.498,0.447-3.445,7.24C75.777,155.941,73.612,157.066,71.196,157.576z"/>
<path fill-rule="evenodd" clip-rule="evenodd" fill="#F2F3F3" d="M81.389,147.581c-0.005-0.331-0.008-0.663-0.008-0.994
	c0-0.284-0.002-0.568-0.003-0.852c5.598,1.625,11.414,0.771,17.13,1.548c13.893,1.887,27.892,2.989,41.848,4.408
	c0.169,0.844,0.054,1.378-0.987,0.91c-13.061-0.644-26.036-2.145-39-3.797c-2.627-0.335-5.32-0.149-7.982-0.204
	C88.86,146.741,85.054,147.925,81.389,147.581z"/>
<path fill-rule="evenodd" clip-rule="evenodd" fill="#111813" d="M101.175,159.04c0.332,0.646,0.664,1.292,0.997,1.938
	c0.029,3.067-0.9,5.754-4.212,6.308c-3.612,0.604-5.101-2.23-6.436-4.952c-0.737-0.503-0.816-0.982,0.05-1.43
	c1.225-2.874,3.287-4.438,6.52-4.172C99.121,157.5,100.147,158.27,101.175,159.04z"/>
<path fill-rule="evenodd" clip-rule="evenodd" fill="#152714" d="M71.196,157.576c1.674-2.328,3.832-3.469,6.747-2.755
	c1.113,1.313,2.227,2.628,3.34,3.942c1.274,1.891,0.354,3.311-0.995,4.638c-0.634,0.439-1.267,0.88-1.9,1.319
	C72.332,164.999,71.052,163.726,71.196,157.576z"/>
<path fill-rule="evenodd" clip-rule="evenodd" fill="#F8F8F8" d="M80.288,163.401c0.332-1.546,0.663-3.092,0.995-4.638
	C83.086,161.199,82.793,162.561,80.288,163.401z"/>
<path fill-rule="evenodd" clip-rule="evenodd" fill="#FCFCFA" d="M91.574,160.903c-0.017,0.477-0.033,0.953-0.05,1.43
	c-0.188,0.414-0.398,1.189-0.562,1.181c-0.892-0.053-0.522-0.845-0.565-1.34C90.322,161.318,90.371,161.313,91.574,160.903z"/>
<path fill-rule="evenodd" clip-rule="evenodd" fill="#F1F0F0" d="M139.368,152.601c0.329-0.304,0.658-0.607,0.987-0.911
	c0.351,0.007,0.701,0.013,1.052,0.019c1.627,0.929,3.548-0.115,5.181,0.774c11.834,0.961,23.701,1.541,35.408,3.79
	c3.043,0.585,6.243,0.359,9.371,0.507c-3.466,1.67-7.152,0.941-10.667,0.604c-10.765-1.033-21.474-2.676-32.319-2.797
	C145.773,152.125,141.978,155.053,139.368,152.601z"/>
<path fill-rule="evenodd" clip-rule="evenodd" fill="#E4E4E4" d="M146.588,152.483c-1.761-0.035-3.639,0.713-5.181-0.775
	C143.18,151.659,144.99,151.359,146.588,152.483z"/>
<path fill-rule="evenodd" clip-rule="evenodd" fill="#F5F4F4" d="M235.264,89.516c-1.637-1.879-0.84-4.146-0.818-6.211
	c0.028-2.755-0.979-4.353-3.707-4.859c-1.335,5.375,1.009,10.956-1.353,16.147c-0.249-4.938,0.505-9.903-0.868-14.825
	c-0.609-2.18,1.09-4.259,1.594-6.247c2.064-8.139,3.801-16.957,1.763-24.916c-1.342-5.239,1.064-9.46-0.028-14.133
	c2.793,3.464,0.511,7.839,2.534,12.599c1.804-5.086,0.38-9.384,1.34-13.71c1.689,3.079-0.575,6.501,1.56,9.169
	c0.057,1.357,0.114,2.715,0.172,4.072C236.723,60.907,235.993,75.211,235.264,89.516z"/>
<path fill-rule="evenodd" clip-rule="evenodd" fill="#E4E4E3" d="M229.37,103.577c1.264,0.541,3.438-2.256,3.876,0.866
	c0.227,1.616,1.064,3.882-1.117,4.846c-1.504,0.665-3.361,0.745-3.753-1.703C228.526,106.205,227.933,104.638,229.37,103.577z"/>
<path fill-rule="evenodd" clip-rule="evenodd" fill="#E9E8E8" d="M74.36,146.609c-3.895,1.237-7.911,1.738-11.97,1.978
	c-0.223-2.432,1.071-3.233,3.271-2.992C68.563,145.912,71.461,146.269,74.36,146.609z"/>
<path fill-rule="evenodd" clip-rule="evenodd" fill="#B1B4BA" d="M218.347,157.504c0.677-0.544,1.354-1.087,2.029-1.628
	c0.997-0.408,1.995-0.819,2.993-1.23c0.491,0.428,0.84,0.95,1.052,1.565c0.611,5.102,0.532,10.229,0.443,15.35
	c-0.03,1.776,0.034,3.694-1.534,5.054c-1.158-0.567-0.314-3.015-3.402-2.288c-2.629,0.618-3.824-6.386-1.217-10.5
	c1.582-2.497,1.444-3.984-1.263-5.144C217.875,158.387,219.354,158.891,218.347,157.504z"/>
<path fill-rule="evenodd" clip-rule="evenodd" fill="#888E98" d="M223.33,176.615c0.026-7.001,0.054-14.002,0.081-21.004
	c0.341-0.057,0.877-0.06,0.899,0.096c1.204,8.305,9.2,6.477,14.012,9.375c0.378,0.228,0.92,0.263,1.34,0.522
	c0.338,0.822,0.169,1.603-0.189,2.367c-1.689,1.89-3.379,3.779-5.069,5.668c-4.134-0.854-7.55,1.014-10.964,2.892L223.33,176.615z"
	/>
<path fill-rule="evenodd" clip-rule="evenodd" fill="#8F959E" d="M223.439,176.531c2.972-4.442,6.323-5.326,10.964-2.892
	c-1.028,1.64-2.37,2.972-3.972,4.049c-2.243,1.289-4.172,2.862-4.955,5.474c-0.023,0.397-0.231,0.586-0.625,0.563
	C222.12,181.771,223.857,178.939,223.439,176.531z"/>
<path fill-rule="evenodd" clip-rule="evenodd" fill="#A0A4A9" d="M225.477,183.162c0.255-3.09,1.658-5.139,4.955-5.474
	C228.78,179.513,227.129,181.337,225.477,183.162z"/>
<path fill-rule="evenodd" clip-rule="evenodd" fill="#A0A6AC" d="M239.473,167.971c-0.023-0.794-0.048-1.587-0.071-2.381
	c0.038-0.615,0.693-0.628,0.979-1.002c1.582-0.165,1.881-2.917,4.006-1.988C242.748,164.39,241.11,166.18,239.473,167.971z"/>
<path fill-rule="evenodd" clip-rule="evenodd" fill="#8E929C" d="M240.381,164.588c-0.327,0.334-0.653,0.668-0.98,1.002
	c-4.683,0.528-8.706-2.834-13.462-2.229c-1.437,0.183-1.423-1.465-1.558-2.619c-0.203-1.73,0.642-3.668-0.97-5.132
	c-0.028-0.321-0.043-0.644-0.042-0.966c2.531-3.465,5.629-6.372,8.929-9.083c2.26-1.61,4.817-0.087,7.177-0.681
	c1.552-0.391,3.519-0.257,4.126-2.117c0.708-2.169-1.196-2.713-2.648-3.433c-0.758-0.375-1.35-0.905-1.587-1.754
	c1.641-2.351,3.631-4.354,5.969-6.011c2.286,7.072,0.783,14.311,0.772,21.465c-0.004,2.237-2.584,1.36-4.093,1.554
	c-5.03,0.646-7.653,4.317-5.712,7.884C237.247,164.206,238.602,164.69,240.381,164.588z"/>
<path fill-rule="evenodd" clip-rule="evenodd" fill="#959AA2" d="M239.365,137.578c1.579,1.905,5.718-0.628,6.039,3.622
	c0.277,3.656-2.988,5.889-8.296,5.317c-1.618-0.174-3.207-0.628-4.81-0.954C234.341,142.625,236.173,139.5,239.365,137.578z"/>
<path fill-rule="evenodd" clip-rule="evenodd" fill="#B7B8BA" d="M89.328,78.699c0.345-2.146-0.507-4.477,1.269-6.521
	c0.117,5.897,0.56,11.706,1.772,17.426c-2.31-0.048-0.339,2.751-2.059,3.096C88.531,88.134,89.759,83.358,89.328,78.699z"/>
<path fill-rule="evenodd" clip-rule="evenodd" fill="#A9AAAE" d="M90.311,92.7c0.176-1.39,0.352-2.778,0.528-4.168
	c0.51,0.357,1.021,0.715,1.53,1.071c0.003,0.329,0.007,0.657,0.012,0.985c1.158,3.433,1.283,6.885,0.715,10.54
	c-2.46-0.513-1.172-2.892-2.634-3.529C90.411,95.966,90.361,94.333,90.311,92.7z"/>
<path fill-rule="evenodd" clip-rule="evenodd" fill="#F4F5F5" d="M200.455,158.556c-2.325,0-4.651,0-7.155,0
	c0.6-1.3,1.561-0.784,2.232-1.063c1.635-0.448,3.27-0.902,4.819,0.256C200.36,158.021,200.396,158.291,200.455,158.556z"/>
<path fill-rule="evenodd" clip-rule="evenodd" fill="#8B8F98" d="M200.352,157.749c-1.607-0.085-3.214-0.17-4.82-0.256
	c-0.124-0.271-0.247-0.544-0.369-0.817C196.932,156.834,198.951,155.794,200.352,157.749z"/>
<path fill-rule="evenodd" clip-rule="evenodd" fill="#101211" d="M121.438,168.852c-4.205,2.061-6.964,0.311-8.979-3.405
	c-0.779-0.886-0.847-1.761,0.041-2.621c3.998-5.361,7.25-5.087,10.806,0.912c0.858,0.786,0.502,1.776,0.455,2.716
	C123.26,167.516,123.057,168.869,121.438,168.852z"/>
<path fill-rule="evenodd" clip-rule="evenodd" fill="#F8F8F8" d="M123.224,166.271c0.027-0.845,0.055-1.688,0.083-2.533
	c0.1-0.301,0.112-0.698,0.316-0.885c0.509-0.463,0.724-0.088,0.739,0.408c0.035,1.11,0.032,2.223,0.045,3.334
	c-0.019,0.324-0.028,0.649-0.031,0.975C123.346,167.71,122.698,167.511,123.224,166.271z"/>
<path fill-rule="evenodd" clip-rule="evenodd" fill="#F0F1F1" d="M112.501,162.826c-0.014,0.874-0.027,1.747-0.041,2.621
	c-1.696-1.169-1.431-2.414-0.146-3.696C112.376,162.11,112.438,162.468,112.501,162.826z"/>
<path fill-rule="evenodd" clip-rule="evenodd" fill="#E4E4E4" d="M123.224,166.271c0.384,0.433,0.769,0.866,1.152,1.299
	c-0.688,1.092-1.188,2.618-2.938,1.282C122.033,167.992,122.629,167.131,123.224,166.271z"/>
<path fill-rule="evenodd" clip-rule="evenodd" fill="#4C9B40" d="M99.315,161.807c-0.244,1.688-0.96,2.825-2.503,2.733
	c-1.464-0.086-2.346-1.193-2.365-2.653c-0.024-1.766,1.58-1.982,2.747-2.119C98.598,159.603,98.904,160.972,99.315,161.807z"/>
<path fill-rule="evenodd" clip-rule="evenodd" fill="#5FA03E" d="M78.338,159.599c0.038,1.549-0.731,2.639-2.236,2.593
	c-1.558-0.048-2.104-1.4-2.133-2.792c-0.026-1.276,0.679-2.32,1.977-2.338C77.452,157.042,78.199,158.125,78.338,159.599z"/>
<path fill-rule="evenodd" clip-rule="evenodd" fill="#3E9741" d="M119.325,162.587c1.871,1.716,1.844,3.538-0.501,4.428
	c-1.878,0.713-3.449-0.212-3.257-2.67C116.373,162.805,117.781,162.55,119.325,162.587z"/>
<path fill-rule="evenodd" clip-rule="evenodd" fill="#80AE51" d="M119.325,162.587c-0.879,1.384-2.52,1.143-3.758,1.76
	C115.819,161.62,116.862,160.587,119.325,162.587z"/>
</svg>
